<?xml version="1.0" standalone="no"?>
<svg xmlns:xlink="http://www.w3.org/1999/xlink" id="wave" style="transform:rotate(180deg); transition: 0.3s" viewBox="0 0 1440 190" version="1.1" xmlns="http://www.w3.org/2000/svg"><defs><linearGradient id="sw-gradient-0" x1="0" x2="0" y1="1" y2="0"><stop stop-color="rgba(255, 228, 225, 1)" offset="0%"/><stop stop-color="rgba(240, 128, 128, 1)" offset="100%"/></linearGradient></defs><path style="transform:translate(0, 0px); opacity:1" fill="url(#sw-gradient-0)" d="M0,114L30,114C60,114,120,114,180,104.5C240,95,300,76,360,57C420,38,480,19,540,34.8C600,51,660,101,720,129.8C780,158,840,165,900,158.3C960,152,1020,133,1080,107.7C1140,82,1200,51,1260,38C1320,25,1380,32,1440,28.5C1500,25,1560,13,1620,28.5C1680,44,1740,89,1800,101.3C1860,114,1920,95,1980,95C2040,95,2100,114,2160,120.3C2220,127,2280,120,2340,110.8C2400,101,2460,89,2520,72.8C2580,57,2640,38,2700,41.2C2760,44,2820,70,2880,85.5C2940,101,3000,108,3060,120.3C3120,133,3180,152,3240,136.2C3300,120,3360,70,3420,41.2C3480,13,3540,6,3600,3.2C3660,0,3720,0,3780,19C3840,38,3900,76,3960,85.5C4020,95,4080,76,4140,66.5C4200,57,4260,57,4290,57L4320,57L4320,190L4290,190C4260,190,4200,190,4140,190C4080,190,4020,190,3960,190C3900,190,3840,190,3780,190C3720,190,3660,190,3600,190C3540,190,3480,190,3420,190C3360,190,3300,190,3240,190C3180,190,3120,190,3060,190C3000,190,2940,190,2880,190C2820,190,2760,190,2700,190C2640,190,2580,190,2520,190C2460,190,2400,190,2340,190C2280,190,2220,190,2160,190C2100,190,2040,190,1980,190C1920,190,1860,190,1800,190C1740,190,1680,190,1620,190C1560,190,1500,190,1440,190C1380,190,1320,190,1260,190C1200,190,1140,190,1080,190C1020,190,960,190,900,190C840,190,780,190,720,190C660,190,600,190,540,190C480,190,420,190,360,190C300,190,240,190,180,190C120,190,60,190,30,190L0,190Z"/></svg>