<?xml version="1.0" standalone="no"?>
<svg xmlns:xlink="http://www.w3.org/1999/xlink" id="wave" style="transform:rotate(0deg); transition: 0.3s" viewBox="0 0 1440 190" version="1.1" xmlns="http://www.w3.org/2000/svg"><defs><linearGradient id="sw-gradient-0" x1="0" x2="0" y1="1" y2="0"><stop stop-color="rgba(255, 228, 225, 1)" offset="0%"/><stop stop-color="rgba(240, 128, 128, 1)" offset="100%"/></linearGradient></defs><path style="transform:translate(0, 0px); opacity:1" fill="url(#sw-gradient-0)" d="M0,133L40,129.8C80,127,160,120,240,101.3C320,82,400,51,480,53.8C560,57,640,95,720,95C800,95,880,57,960,60.2C1040,63,1120,108,1200,107.7C1280,108,1360,63,1440,38C1520,13,1600,6,1680,19C1760,32,1840,63,1920,63.3C2000,63,2080,32,2160,41.2C2240,51,2320,101,2400,120.3C2480,139,2560,127,2640,117.2C2720,108,2800,101,2880,91.8C2960,82,3040,70,3120,60.2C3200,51,3280,44,3360,41.2C3440,38,3520,38,3600,44.3C3680,51,3760,63,3840,76C3920,89,4000,101,4080,107.7C4160,114,4240,114,4320,101.3C4400,89,4480,63,4560,72.8C4640,82,4720,127,4800,136.2C4880,146,4960,120,5040,107.7C5120,95,5200,95,5280,85.5C5360,76,5440,57,5520,60.2C5600,63,5680,89,5720,101.3L5760,114L5760,190L5720,190C5680,190,5600,190,5520,190C5440,190,5360,190,5280,190C5200,190,5120,190,5040,190C4960,190,4880,190,4800,190C4720,190,4640,190,4560,190C4480,190,4400,190,4320,190C4240,190,4160,190,4080,190C4000,190,3920,190,3840,190C3760,190,3680,190,3600,190C3520,190,3440,190,3360,190C3280,190,3200,190,3120,190C3040,190,2960,190,2880,190C2800,190,2720,190,2640,190C2560,190,2480,190,2400,190C2320,190,2240,190,2160,190C2080,190,2000,190,1920,190C1840,190,1760,190,1680,190C1600,190,1520,190,1440,190C1360,190,1280,190,1200,190C1120,190,1040,190,960,190C880,190,800,190,720,190C640,190,560,190,480,190C400,190,320,190,240,190C160,190,80,190,40,190L0,190Z"/></svg>